  0
SECTION
  2
HEADER
  9
$ACADVER
  1
AC1024
  9
$ACADMAINTVER
 70
6
  9
$DWGCODEPAGE
  3
ANSI_1252
  9
$LASTSAVEDBY
  1
ezdxf
  9
$INSBASE
 10
0.0
 20
0.0
 30
0.0
  9
$EXTMIN
 10
1e+20
 20
1e+20
 30
1e+20
  9
$EXTMAX
 10
-1e+20
 20
-1e+20
 30
-1e+20
  9
$LIMMIN
 10
0.0
 20
0.0
  9
$LIMMAX
 10
420.0
 20
297.0
  9
$ORTHOMODE
 70
0
  9
$REGENMODE
 70
1
  9
$FILLMODE
 70
1
  9
$QTEXTMODE
 70
0
  9
$MIRRTEXT
 70
1
  9
$LTSCALE
 40
1.0
  9
$ATTMODE
 70
1
  9
$TEXTSIZE
 40
2.5
  9
$TRACEWID
 40
1.0
  9
$TEXTSTYLE
  7
Standard
  9
$CLAYER
  8
0
  9
$CELTYPE
  6
ByLayer
  9
$CECOLOR
 62
256
  9
$CELTSCALE
 40
1.0
  9
$DISPSILH
 70
0
  9
$DIMSCALE
 40
1.0
  9
$DIMASZ
 40
2.5
  9
$DIMEXO
 40
0.625
  9
$DIMDLI
 40
3.75
  9
$DIMRND
 40
0.0
  9
$DIMDLE
 40
0.0
  9
$DIMEXE
 40
1.25
  9
$DIMTP
 40
0.0
  9
$DIMTM
 40
0.0
  9
$DIMTXT
 40
2.5
  9
$DIMCEN
 40
2.5
  9
$DIMTSZ
 40
0.0
  9
$DIMTOL
 70
0
  9
$DIMLIM
 70
0
  9
$DIMTIH
 70
0
  9
$DIMTOH
 70
0
  9
$DIMSE1
 70
0
  9
$DIMSE2
 70
0
  9
$DIMTAD
 70
1
  9
$DIMZIN
 70
8
  9
$DIMBLK
  1

  9
$DIMASO
 70
1
  9
$DIMSHO
 70
1
  9
$DIMPOST
  1

  9
$DIMAPOST
  1

  9
$DIMALT
 70
0
  9
$DIMALTD
 70
3
  9
$DIMALTF
 40
0.03937007874
  9
$DIMLFAC
 40
1.0
  9
$DIMTOFL
 70
1
  9
$DIMTVP
 40
0.0
  9
$DIMTIX
 70
0
  9
$DIMSOXD
 70
0
  9
$DIMSAH
 70
0
  9
$DIMBLK1
  1

  9
$DIMBLK2
  1

  9
$DIMSTYLE
  2
ISO-25
  9
$DIMCLRD
 70
0
  9
$DIMCLRE
 70
0
  9
$DIMCLRT
 70
0
  9
$DIMTFAC
 40
1.0
  9
$DIMGAP
 40
0.625
  9
$DIMJUST
 70
0
  9
$DIMSD1
 70
0
  9
$DIMSD2
 70
0
  9
$DIMTOLJ
 70
0
  9
$DIMTZIN
 70
8
  9
$DIMALTZ
 70
0
  9
$DIMALTTZ
 70
0
  9
$DIMUPT
 70
0
  9
$DIMDEC
 70
2
  9
$DIMTDEC
 70
2
  9
$DIMALTU
 70
2
  9
$DIMALTTD
 70
3
  9
$DIMTXSTY
  7
Standard
  9
$DIMAUNIT
 70
0
  9
$DIMADEC
 70
0
  9
$DIMALTRND
 40
0.0
  9
$DIMAZIN
 70
0
  9
$DIMDSEP
 70
44
  9
$DIMATFIT
 70
3
  9
$DIMFRAC
 70
0
  9
$DIMLDRBLK
  1

  9
$DIMLUNIT
 70
2
  9
$DIMLWD
 70
-2
  9
$DIMLWE
 70
-2
  9
$DIMTMOVE
 70
0
  9
$DIMFXL
 40
1.0
  9
$DIMFXLON
 70
0
  9
$DIMJOGANG
 40
0.785398163397
  9
$DIMTFILL
 70
0
  9
$DIMTFILLCLR
 70
0
  9
$DIMARCSYM
 70
0
  9
$DIMLTYPE
  6

  9
$DIMLTEX1
  6

  9
$DIMLTEX2
  6

  9
$DIMTXTDIRECTION
 70
0
  9
$LUNITS
 70
2
  9
$LUPREC
 70
4
  9
$SKETCHINC
 40
1.0
  9
$FILLETRAD
 40
10.0
  9
$AUNITS
 70
0
  9
$AUPREC
 70
2
  9
$MENU
  1
.
  9
$ELEVATION
 40
0.0
  9
$PELEVATION
 40
0.0
  9
$THICKNESS
 40
0.0
  9
$LIMCHECK
 70
0
  9
$CHAMFERA
 40
0.0
  9
$CHAMFERB
 40
0.0
  9
$CHAMFERC
 40
0.0
  9
$CHAMFERD
 40
0.0
  9
$SKPOLY
 70
0
  9
$TDCREATE
 40
2461140.482974537
  9
$TDUCREATE
 40
2458532.153996898
  9
$TDUPDATE
 40
2461140.482974537
  9
$TDUUPDATE
 40
2458532.1544311
  9
$TDINDWG
 40
0.0
  9
$TDUSRTIMER
 40
0.0
  9
$USRTIMER
 70
1
  9
$ANGBASE
 50
0.0
  9
$ANGDIR
 70
0
  9
$PDMODE
 70
0
  9
$PDSIZE
 40
0.0
  9
$PLINEWID
 40
0.0
  9
$SPLFRAME
 70
0
  9
$SPLINETYPE
 70
6
  9
$SPLINESEGS
 70
8
  9
$HANDSEED
  5
35
  9
$SURFTAB1
 70
6
  9
$SURFTAB2
 70
6
  9
$SURFTYPE
 70
6
  9
$SURFU
 70
6
  9
$SURFV
 70
6
  9
$UCSBASE
  2

  9
$UCSNAME
  2

  9
$UCSORG
 10
0.0
 20
0.0
 30
0.0
  9
$UCSXDIR
 10
1.0
 20
0.0
 30
0.0
  9
$UCSYDIR
 10
0.0
 20
1.0
 30
0.0
  9
$UCSORTHOREF
  2

  9
$UCSORTHOVIEW
 70
0
  9
$UCSORGTOP
 10
0.0
 20
0.0
 30
0.0
  9
$UCSORGBOTTOM
 10
0.0
 20
0.0
 30
0.0
  9
$UCSORGLEFT
 10
0.0
 20
0.0
 30
0.0
  9
$UCSORGRIGHT
 10
0.0
 20
0.0
 30
0.0
  9
$UCSORGFRONT
 10
0.0
 20
0.0
 30
0.0
  9
$UCSORGBACK
 10
0.0
 20
0.0
 30
0.0
  9
$PUCSBASE
  2

  9
$PUCSNAME
  2

  9
$PUCSORG
 10
0.0
 20
0.0
 30
0.0
  9
$PUCSXDIR
 10
1.0
 20
0.0
 30
0.0
  9
$PUCSYDIR
 10
0.0
 20
1.0
 30
0.0
  9
$PUCSORTHOREF
  2

  9
$PUCSORTHOVIEW
 70
0
  9
$PUCSORGTOP
 10
0.0
 20
0.0
 30
0.0
  9
$PUCSORGBOTTOM
 10
0.0
 20
0.0
 30
0.0
  9
$PUCSORGLEFT
 10
0.0
 20
0.0
 30
0.0
  9
$PUCSORGRIGHT
 10
0.0
 20
0.0
 30
0.0
  9
$PUCSORGFRONT
 10
0.0
 20
0.0
 30
0.0
  9
$PUCSORGBACK
 10
0.0
 20
0.0
 30
0.0
  9
$USERI1
 70
0
  9
$USERI2
 70
0
  9
$USERI3
 70
0
  9
$USERI4
 70
0
  9
$USERI5
 70
0
  9
$USERR1
 40
0.0
  9
$USERR2
 40
0.0
  9
$USERR3
 40
0.0
  9
$USERR4
 40
0.0
  9
$USERR5
 40
0.0
  9
$WORLDVIEW
 70
1
  9
$SHADEDGE
 70
3
  9
$SHADEDIF
 70
70
  9
$TILEMODE
 70
1
  9
$MAXACTVP
 70
64
  9
$PINSBASE
 10
0.0
 20
0.0
 30
0.0
  9
$PLIMCHECK
 70
0
  9
$PEXTMIN
 10
1e+20
 20
1e+20
 30
1e+20
  9
$PEXTMAX
 10
-1e+20
 20
-1e+20
 30
-1e+20
  9
$PLIMMIN
 10
0.0
 20
0.0
  9
$PLIMMAX
 10
420.0
 20
297.0
  9
$UNITMODE
 70
0
  9
$VISRETAIN
 70
1
  9
$PLINEGEN
 70
0
  9
$PSLTSCALE
 70
1
  9
$TREEDEPTH
 70
3020
  9
$CMLSTYLE
  2
Standard
  9
$CMLJUST
 70
0
  9
$CMLSCALE
 40
20.0
  9
$PROXYGRAPHICS
 70
1
  9
$MEASUREMENT
 70
1
  9
$CELWEIGHT
370
-1
  9
$ENDCAPS
280
0
  9
$JOINSTYLE
280
0
  9
$LWDISPLAY
290
0
  9
$INSUNITS
 70
4
  9
$HYPERLINKBASE
  1

  9
$STYLESHEET
  1

  9
$XEDIT
290
1
  9
$CEPSNTYPE
380
0
  9
$PSTYLEMODE
290
1
  9
$FINGERPRINTGUID
  2
{919F2F58-8775-458C-BC5F-E83E1BDA381E}
  9
$VERSIONGUID
  2
{3E27763C-8EEE-4DF0-8641-00AA85E555F5}
  9
$EXTNAMES
290
1
  9
$PSVPSCALE
 40
0.0
  9
$OLESTARTUP
290
0
  9
$SORTENTS
280
127
  9
$INDEXCTL
280
0
  9
$HIDETEXT
280
1
  9
$XCLIPFRAME
280
1
  9
$HALOGAP
280
0
  9
$OBSCOLOR
 70
257
  9
$OBSLTYPE
280
0
  9
$INTERSECTIONDISPLAY
280
0
  9
$INTERSECTIONCOLOR
 70
257
  9
$DIMASSOC
280
2
  9
$PROJECTNAME
  1

  9
$CAMERADISPLAY
290
0
  9
$LENSLENGTH
 40
50.0
  9
$CAMERAHEIGHT
 40
0.0
  9
$STEPSPERSEC
 40
24.0
  9
$STEPSIZE
 40
100.0
  9
$3DDWFPREC
 40
2.0
  9
$PSOLWIDTH
 40
0.005
  9
$PSOLHEIGHT
 40
0.08
  9
$LOFTANG1
 40
1.570796326795
  9
$LOFTANG2
 40
1.570796326795
  9
$LOFTMAG1
 40
0.0
  9
$LOFTMAG2
 40
0.0
  9
$LOFTPARAM
 70
7
  9
$LOFTNORMALS
280
1
  9
$LATITUDE
 40
37.795
  9
$LONGITUDE
 40
-122.394
  9
$NORTHDIRECTION
 40
0.0
  9
$TIMEZONE
 70
-8000
  9
$LIGHTGLYPHDISPLAY
280
1
  9
$TILEMODELIGHTSYNCH
280
1
  9
$CMATERIAL
347
20
  9
$SOLIDHIST
280
0
  9
$SHOWHIST
280
1
  9
$DWFFRAME
280
2
  9
$DGNFRAME
280
2
  9
$REALWORLDSCALE
290
1
  9
$INTERFERECOLOR
 62
256
  9
$CSHADOW
280
0
  9
$SHADOWPLANELOCATION
 40
0.0
  0
ENDSEC
  0
SECTION
  2
CLASSES
  0
CLASS
  1
ACDBDICTIONARYWDFLT
  2
AcDbDictionaryWithDefault
  3
ObjectDBX Classes
 90
0
 91
0
280
0
281
0
  0
CLASS
  1
SUN
  2
AcDbSun
  3
SCENEOE
 90
1153
 91
0
280
0
281
0
  0
CLASS
  1
VISUALSTYLE
  2
AcDbVisualStyle
  3
ObjectDBX Classes
 90
4095
 91
0
280
0
281
0
  0
CLASS
  1
MATERIAL
  2
AcDbMaterial
  3
ObjectDBX Classes
 90
1153
 91
0
280
0
281
0
  0
CLASS
  1
SCALE
  2
AcDbScale
  3
ObjectDBX Classes
 90
1153
 91
0
280
0
281
0
  0
CLASS
  1
TABLESTYLE
  2
AcDbTableStyle
  3
ObjectDBX Classes
 90
4095
 91
0
280
0
281
0
  0
CLASS
  1
MLEADERSTYLE
  2
AcDbMLeaderStyle
  3
ACDB_MLEADERSTYLE_CLASS
 90
4095
 91
0
280
0
281
0
  0
CLASS
  1
DICTIONARYVAR
  2
AcDbDictionaryVar
  3
ObjectDBX Classes
 90
0
 91
0
280
0
281
0
  0
CLASS
  1
CELLSTYLEMAP
  2
AcDbCellStyleMap
  3
ObjectDBX Classes
 90
1152
 91
0
280
0
281
0
  0
CLASS
  1
MENTALRAYRENDERSETTINGS
  2
AcDbMentalRayRenderSettings
  3
SCENEOE
 90
1024
 91
0
280
0
281
0
  0
CLASS
  1
ACDBDETAILVIEWSTYLE
  2
AcDbDetailViewStyle
  3
ObjectDBX Classes
 90
1025
 91
0
280
0
281
0
  0
CLASS
  1
ACDBSECTIONVIEWSTYLE
  2
AcDbSectionViewStyle
  3
ObjectDBX Classes
 90
1025
 91
0
280
0
281
0
  0
CLASS
  1
RASTERVARIABLES
  2
AcDbRasterVariables
  3
ISM
 90
0
 91
0
280
0
281
0
  0
CLASS
  1
LAYOUT
  2
AcDbLayout
  3
ObjectDBX Classes
 90
0
 91
0
280
0
281
0
  0
CLASS
  1
ACDBPLACEHOLDER
  2
AcDbPlaceHolder
  3
ObjectDBX Classes
 90
0
 91
0
280
0
281
0
  0
ENDSEC
  0
SECTION
  2
TABLES
  0
TABLE
  2
VPORT
  5
8
330
0
100
AcDbSymbolTable
 70
1
  0
VPORT
  5
23
330
8
100
AcDbSymbolTableRecord
100
AcDbViewportTableRecord
  2
*Active
 70
0
 10
0.0
 20
0.0
 11
1.0
 21
1.0
 12
0.0
 22
0.0
 13
0.0
 23
0.0
 14
0.5
 24
0.5
 15
0.5
 25
0.5
 16
0.0
 26
0.0
 36
1.0
 17
0.0
 27
0.0
 37
0.0
 40
1000.0
 41
1.34
 42
50.0
 43
0.0
 44
0.0
 50
0.0
 51
0.0
 71
0
 72
1000
 73
1
 74
3
 75
0
 76
0
 77
0
 78
0
281
0
 65
0
146
0.0
  0
ENDTAB
  0
TABLE
  2
LTYPE
  5
2
330
0
100
AcDbSymbolTable
 70
3
  0
LTYPE
  5
24
330
2
100
AcDbSymbolTableRecord
100
AcDbLinetypeTableRecord
  2
ByBlock
 70
0
  3

 72
65
 73
0
 40
0.0
  0
LTYPE
  5
25
330
2
100
AcDbSymbolTableRecord
100
AcDbLinetypeTableRecord
  2
ByLayer
 70
0
  3

 72
65
 73
0
 40
0.0
  0
LTYPE
  5
26
330
2
100
AcDbSymbolTableRecord
100
AcDbLinetypeTableRecord
  2
Continuous
 70
0
  3

 72
65
 73
0
 40
0.0
  0
ENDTAB
  0
TABLE
  2
LAYER
  5
1
330
0
100
AcDbSymbolTable
 70
2
  0
LAYER
  5
27
330
1
100
AcDbSymbolTableRecord
100
AcDbLayerTableRecord
  2
0
 70
0
 62
7
  6
Continuous
370
-3
390
13
347
21
  0
LAYER
  5
28
330
1
100
AcDbSymbolTableRecord
100
AcDbLayerTableRecord
  2
Defpoints
 70
0
 62
7
  6
Continuous
290
0
370
-3
390
13
347
21
  0
ENDTAB
  0
TABLE
  2
STYLE
  5
5
330
0
100
AcDbSymbolTable
 70
1
  0
STYLE
  5
29
330
5
100
AcDbSymbolTableRecord
100
AcDbTextStyleTableRecord
  2
Standard
 70
0
 40
0.0
 41
1.0
 50
0.0
 71
0
 42
2.5
  3
txt
  4

  0
ENDTAB
  0
TABLE
  2
VIEW
  5
7
330
0
100
AcDbSymbolTable
 70
0
  0
ENDTAB
  0
TABLE
  2
UCS
  5
6
330
0
100
AcDbSymbolTable
 70
0
  0
ENDTAB
  0
TABLE
  2
APPID
  5
3
330
0
100
AcDbSymbolTable
 70
3
  0
APPID
  5
2A
330
3
100
AcDbSymbolTableRecord
100
AcDbRegAppTableRecord
  2
ACAD
 70
0
  0
APPID
  5
32
330
3
100
AcDbSymbolTableRecord
100
AcDbRegAppTableRecord
  2
HATCHBACKGROUNDCOLOR
 70
0
  0
APPID
  5
33
330
3
100
AcDbSymbolTableRecord
100
AcDbRegAppTableRecord
  2
EZDXF
 70
0
  0
ENDTAB
  0
TABLE
  2
DIMSTYLE
  5
4
330
0
100
AcDbSymbolTable
 70
1
100
AcDbDimStyleTable
  0
DIMSTYLE
105
2B
330
4
100
AcDbSymbolTableRecord
100
AcDbDimStyleTableRecord
  2
Standard
 70
0
 40
1.0
 41
2.5
 42
0.625
 43
3.75
 44
1.25
 45
0.0
 46
0.0
 47
0.0
 48
0.0
 49
2.5
140
2.5
141
2.5
142
0.0
143
0.03937007874
144
1.0
145
0.0
146
1.0
147
0.625
148
0.0
 69
0
 70
0
 71
0
 72
0
 73
0
 74
0
 75
0
 76
0
 77
1
 78
8
 79
3
170
0
171
3
172
1
173
0
174
0
175
0
176
0
177
0
178
0
179
2
271
2
272
2
273
2
274
3
275
0
276
0
277
2
278
44
279
0
280
0
281
0
282
0
283
0
284
8
285
0
286
0
288
0
289
3
290
0
371
-2
372
-2
  0
ENDTAB
  0
TABLE
  2
BLOCK_RECORD
  5
9
330
0
100
AcDbSymbolTable
 70
2
  0
BLOCK_RECORD
  5
17
330
9
100
AcDbSymbolTableRecord
100
AcDbBlockTableRecord
  2
*Model_Space
340
1A
 70
0
280
1
281
0
  0
BLOCK_RECORD
  5
1B
330
9
100
AcDbSymbolTableRecord
100
AcDbBlockTableRecord
  2
*Paper_Space
340
1E
 70
0
280
1
281
0
  0
ENDTAB
  0
ENDSEC
  0
SECTION
  2
BLOCKS
  0
BLOCK
  5
18
330
17
100
AcDbEntity
  8
0
100
AcDbBlockBegin
  2
*Model_Space
 70
0
 10
0.0
 20
0.0
 30
0.0
  3
*Model_Space
  1

  0
ENDBLK
  5
19
330
17
100
AcDbEntity
  8
0
100
AcDbBlockEnd
  0
BLOCK
  5
1C
330
1B
100
AcDbEntity
  8
0
100
AcDbBlockBegin
  2
*Paper_Space
 70
0
 10
0.0
 20
0.0
 30
0.0
  3
*Paper_Space
  1

  0
ENDBLK
  5
1D
330
1B
100
AcDbEntity
  8
0
100
AcDbBlockEnd
  0
ENDSEC
  0
SECTION
  2
ENTITIES
  0
LWPOLYLINE
  5
2F
330
17
100
AcDbEntity
  8
SECTION_001
 62
5
100
AcDbPolyline
 90
154
 70
1
 10
13.4921875
 20
0.8593749999999964
 10
13.4921875
 20
0.8662928858408065
 10
13.4921875
 20
0.8731752743123096
 10
13.4921875
 20
0.9814861081929092
 10
13.4921875
 20
1.0261092743123115
 10
13.4921875
 20
1.1721607235848683
 10
13.4921875
 20
1.2535462743123098
 10
13.4921875
 20
1.4363605321929391
 10
13.4921875
 20
1.5531532743123115
 10
13.4921875
 20
1.7713744426719646
 10
13.4921875
 20
1.9218552743123105
 10
13.4921875
 20
2.1737647231886577
 10
13.4921875
 20
2.35586927431231
 10
13.4921875
 20
2.6394022295481268
 10
13.4921875
 20
2.850741274312309
 10
13.4921875
 20
3.1635092985500606
 10
13.4921875
 20
3.4013942743123096
 10
13.4921875
 20
3.7407068886098713
 10
13.4921875
 20
4.002175274312311
 10
13.4921875
 20
4.365072668064505
 10
13.4921875
 20
4.64692227431231
 10
13.4921875
 20
5.030200454065978
 10
13.4921875
 20
5.329018274312311
 10
13.4921875
 20
5.72926427187727
 10
13.4921875
 20
6.04146327431231
 10
13.4921875
 20
6.455091280684169
 10
13.4921875
 20
6.776948274312311
 10
13.4921875
 20
7.200233629114564
 10
13.4921875
 20
7.527924874312312
 10
13.4921875
 20
7.957044590948591
 10
13.4921875
 20
8.286687274312314
 10
13.4921875
 20
8.7177584756341
 10
13.4921875
 20
9.045449674312309
 10
13.4921875
 20
9.474569451867069
 10
13.4921875
 20
9.79642627431231
 10
13.4921875
 20
10.219711854243286
 10
13.4921875
 20
10.53191127431231
 10
13.4921875
 20
10.945538727367598
 10
13.4921875
 20
11.24435627431231
 10
13.4921875
 20
11.644602637946406
 10
13.4921875
 20
11.926452274312311
 10
13.4921875
 20
12.30973041310935
 10
13.4921875
 20
12.57119927431231
 10
13.4921875
 20
12.934096008108668
 10
13.4921875
 20
13.171980274312311
 10
13.4921875
 20
13.511293900707855
 10
13.4921875
 20
13.722633274312312
 10
13.4921875
 20
14.035400811888632
 10
13.4921875
 20
14.217505274312312
 10
13.4921875
 20
14.501038367652189
 10
13.4921875
 20
14.65151927431231
 10
13.4921875
 20
14.903428597603352
 10
13.4921875
 20
15.02022127431231
 10
13.4921875
 20
15.238442564887986
 10
13.4921875
 20
15.31982827431231
 10
13.4921875
 20
15.502642175716936
 10
13.4921875
 20
15.54726527431231
 10
13.4921875
 20
15.693316944591079
 10
13.4921875
 20
15.700199274312311
 10
13.4921875
 20
15.713999548624624
 10
11.85127975136775
 20
15.713999548624624
 10
11.4921875
 20
15.713999548624624
 10
11.4921875
 20
15.616498121284238
 10
11.4921875
 20
14.830535563115856
 10
11.4921875
 20
14.706669278634283
 10
11.488832624870241
 20
14.673484470256213
 10
11.463365419999999
 20
14.406077494074399
 10
11.40233611209726
 20
14.202934311155172
 10
11.3780068
 20
14.121951330114722
 10
11.267266800014847
 20
13.912756955610234
 10
11.2393919
 20
13.860099669741182
 10
11.075408150972812
 20
13.658342161363763
 10
11.0528477
 20
13.630584884342905
 10
10.83699549085699
 20
13.45171683263614
 10
10.825542899999999
 20
13.44222653680383
 10
10.588007990375257
 20
13.31402629919139
 10
10.5662127
 20
13.302030968819427
 10
10.564828594535202
 20
13.301598656644757
 10
10.284822499999999
 20
13.214141682967345
 10
10.027498120128694
 20
13.186159039283623
 10
9.9921875
 20
13.181923608583308
 10
9.21412550371733
 20
13.181923608583308
 10
2.4921875
 20
13.181923608583308
 10
2.215192842034188
 20
13.041685001332958
 10
1.4921875
 20
12.666111268629479
 10
1.4921875
 20
12.63335327431231
 10
1.4921875
 20
12.622559266952504
 10
1.4921875
 20
12.444145274312312
 10
1.4921875
 20
12.396817896606702
 10
1.4921875
 20
12.183801996534534
 10
1.4921875
 20
12.101872776195592
 10
1.4921875
 20
11.85677727431231
 10
1.4921875
 20
11.74276912981895
 10
1.4921875
 20
11.468667931447229
 10
1.4921875
 20
11.325653441986816
 10
1.4921875
 20
11.026113914364803
 10
1.4921875
 20
10.857661472108166
 10
1.4921875
 20
10.536687902612382
 10
1.4921875
 20
10.34680086557551
 10
1.4921875
 20
10.008762894578108
 10
1.4921875
 20
9.801812444971159
 10
1.4921875
 20
9.45137327431231
 10
1.4921875
 20
9.232021055880374
 10
1.4921875
 20
8.874055625175203
 10
1.4921875
 20
8.647176827291265
 10
1.4921875
 20
8.286687797007502
 10
1.4921875
 20
8.057285665221404
 10
1.4921875
 20
7.699319986382193
 10
1.4921875
 20
7.47244104829489
 10
1.4921875
 20
7.122001889343004
 10
1.4921875
 20
6.902649698032143
 10
1.4921875
 20
6.564611894578107
 10
1.4921875
 20
6.357661363121746
 10
1.4921875
 20
6.0366879026123
 10
1.4921875
 20
5.846800732692657
 10
1.4921875
 20
5.547260914364713
 10
1.4921875
 20
5.378808273373043
 10
1.4921875
 20
5.1047069314470725
 10
1.4921875
 20
4.961692506722446
 10
1.4921875
 20
4.71659727431231
 10
1.4921875
 20
4.602588969415777
 10
1.4921875
 20
4.3895729965345325
 10
1.4921875
 20
4.307643804199083
 10
1.4921875
 20
4.12922927431231
 10
1.4921875
 20
4.081901990963257
 10
1.4921875
 20
3.9400212743123113
 10
1.4921875
 20
3.9292271504026175
 10
1.4921875
 20
3.907263081082103
 10
2.2151940580996357
 20
3.5316888604943806
 10
2.4921875
 20
3.391450940041313
 10
3.27024949628267
 20
3.391450940041313
 10
9.9921875
 20
3.391450940041313
 10
10.275003066332541
 20
3.3604286300743045
 10
10.284822499999999
 20
3.3592328656572743
 10
10.295399498968408
 20
3.355929240111273
 10
10.5662127
 20
3.271343579805194
 10
10.567330949640395
 20
3.270728139489206
 10
10.588007990375257
 20
3.2593482494332306
 10
10.813272222145144
 20
3.1377706320732415
 10
10.825542899999999
 20
3.131148011820791
 10
11.02739891923635
 20
2.96387803243927
 10
11.0528477
 20
2.9427896642817153
 10
11.205004852529926
 20
2.7555830234293417
 10
11.2393919
 20
2.713274878883439
 10
11.341984150872364
 20
2.51947206754412
 10
11.3780068
 20
2.4514232185098965
 10
11.434784263763778
 20
2.2624328009722365
 10
11.463365419999999
 20
2.1672970545502217
 10
11.488832624870241
 20
1.8998900783684078
 10
11.4921875
 20
1.8667052699903355
 10
11.4921875
 20
1.7428389855087651
 10
11.4921875
 20
0.9568764273403829
 10
11.4921875
 20
0.8593749999999964
 10
13.133095248632248
 20
0.8593749999999964
  0
LWPOLYLINE
  5
30
330
17
100
AcDbEntity
  8
SECTION_002
 62
5
100
AcDbPolyline
 90
145
 70
1
 10
1.6953125000000036
 20
13.937499999999993
 10
2.0266873887770007
 20
13.937499999999993
 10
3.6953125000000053
 20
13.937499999999993
 10
3.6953125000000053
 20
14.272934795878163
 10
3.6953125000000053
 20
14.534180066020472
 10
3.6953125000000053
 20
14.727200005384635
 10
3.6953125000000053
 20
14.762137176619063
 10
3.6953125000000053
 20
14.885397747533748
 10
3.6953125000000053
 20
14.985282789977216
 10
3.7146815752867877
 20
15.188086502427144
 10
3.724134580000003
 20
15.291197596493092
 10
3.7604308060767355
 20
15.418125820062688
 10
3.809493200000004
 20
15.589696818613358
 10
3.8959993903946195
 20
15.761379503556139
 10
3.9481081000000042
 20
15.86479614215785
 10
4.0998113183598495
 20
16.060886973691034
 10
4.134652300000004
 20
16.105922254753423
 10
4.356602376429327
 20
16.29914822004531
 10
4.361957100000003
 20
16.30380994838464
 10
4.411617322667125
 20
16.33196786322661
 10
4.621287300000004
 20
16.45579203656418
 10
4.650475906575762
 20
16.465574931134377
 10
4.902677500000005
 20
16.550102543076527
 10
5.0108191497757435
 20
16.559412691285054
 10
5.195312500000005
 20
16.585226036071678
 10
11.039434142106778
 20
16.585226036071678
 10
12.695312500000007
 20
16.585226036071678
 10
13.012149634759517
 20
16.752436434772818
 10
13.695312500000007
 20
17.139993566588714
 10
13.695312500000007
 20
17.26327960026616
 10
13.695312500000007
 20
17.27966544433395
 10
13.695312500000007
 20
17.590304544710605
 10
13.695312500000007
 20
17.63876914524558
 10
13.695312500000007
 20
17.978413730440845
 10
13.695312500000007
 20
18.055884761897154
 10
13.695312500000007
 20
18.420967764605592
 10
13.695312500000007
 20
18.523877001263628
 10
13.695312500000007
 20
18.910394788110434
 10
13.695312500000007
 20
19.034738073882608
 10
13.695312500000007
 20
19.438318804179012
 10
13.695312500000007
 20
19.57972613379068
 10
13.695312500000007
 20
19.99570881464922
 10
13.695312500000007
 20
20.149517498300114
 10
13.695312500000007
 20
20.57302692057084
 10
13.695312500000007
 20
20.734362251839435
 10
13.695312500000007
 20
21.160394782299328
 10
13.695312500000007
 20
21.32425343242831
 10
13.695312500000007
 20
21.74776259298482
 10
13.695312500000007
 20
21.909097812419258
 10
13.695312500000007
 20
22.325080544710605
 10
13.695312500000007
 20
22.478889233499714
 10
13.695312500000007
 20
22.88246980417901
 10
13.695312500000007
 20
23.0238772038771
 10
13.695312500000007
 20
23.410394788110466
 10
13.695312500000007
 20
23.534738116103323
 10
13.695312500000007
 20
23.89982076460562
 10
13.695312500000007
 20
24.002729901389372
 10
13.695312500000007
 20
24.342374730441
 10
13.695312500000007
 20
24.419845768342082
 10
13.695312500000007
 20
24.730484544710606
 10
13.695312500000007
 20
24.778949251113765
 10
13.695312500000007
 20
25.05750860026616
 10
13.695312500000007
 20
25.07389443873325
 10
13.695312500000007
 20
25.180795229915294
 10
13.012150413573572
 20
25.56835236907519
 10
12.695312500000007
 20
25.73556305334953
 10
6.8511908578932275
 20
25.73556305334953
 10
5.195312500000005
 20
25.73556305334953
 10
5.0108191497757435
 20
25.761376398136154
 10
4.902677500000005
 20
25.770686546344685
 10
4.858965373039576
 20
25.78533717512916
 10
4.621287300000004
 20
25.864997052857028
 10
4.5998589417887725
 20
25.877651937918053
 10
4.411617322667125
 20
25.9888212261946
 10
4.366969136324135
 20
26.0141372548611
 10
4.361957100000003
 20
26.01697914103657
 10
4.167945404876795
 20
26.185882444372744
 10
4.134652300000004
 20
26.214866834667784
 10
4.001432162068889
 20
26.38706652755754
 10
3.9481081000000042
 20
26.45599294726336
 10
3.8690874228446877
 20
26.61281960326893
 10
3.809493200000004
 20
26.731092270807853
 10
3.7730458211874858
 20
26.858549184473986
 10
3.724134580000003
 20
27.02959149292812
 10
3.7146815752867877
 20
27.132702586994068
 10
3.6953125000000053
 20
27.335506299443995
 10
3.6953125000000053
 20
27.39305396486222
 10
3.6953125000000053
 20
27.44518661730925
 10
3.6953125000000053
 20
27.558651912802148
 10
3.6953125000000053
 20
27.593589084036577
 10
3.6953125000000053
 20
27.786609023400736
 10
3.6953125000000053
 20
28.047854293543047
 10
3.6953125000000053
 20
28.38328908942122
 10
3.36393761122301
 20
28.38328908942122
 10
1.6953125000000036
 20
28.38328908942122
 10
1.6953125000000036
 20
28.224206920099455
 10
1.6953125000000036
 20
28.193535544710606
 10
1.6953125000000036
 20
27.96000701260182
 10
1.6953125000000036
 20
27.893928544710604
 10
1.6953125000000036
 20
27.624993130525603
 10
1.6953125000000036
 20
27.525226544710605
 10
1.6953125000000036
 20
27.222602824726145
 10
1.6953125000000036
 20
27.091212544710604
 10
1.6953125000000036
 20
26.756965343068718
 10
1.6953125000000036
 20
26.596340544710603
 10
1.6953125000000036
 20
26.232858195156204
 10
1.6953125000000036
 20
26.045687544710606
 10
1.6953125000000036
 20
25.655660756366085
 10
1.6953125000000036
 20
25.444906544710605
 10
1.6953125000000036
 20
25.031294884683795
 10
1.6953125000000036
 20
24.800159544710603
 10
1.6953125000000036
 20
24.36616709326306
 10
1.6953125000000036
 20
24.118063544710605
 10
1.6953125000000036
 20
23.66710332183552
 10
1.6953125000000036
 20
23.405618544710606
 10
1.6953125000000036
 20
22.94127624518733
 10
1.6953125000000036
 20
22.670133544710605
 10
1.6953125000000036
 20
22.196133923729846
 10
1.6953125000000036
 20
21.919156944710604
 10
1.6953125000000036
 20
21.439322969095294
 10
1.6953125000000036
 20
21.160394544710606
 10
1.6953125000000036
 20
20.678609084409782
 10
1.6953125000000036
 20
20.401632144710604
 10
1.6953125000000036
 20
19.921798100977337
 10
1.6953125000000036
 20
19.650655544710602
 10
1.6953125000000036
 20
19.17665567162821
 10
1.6953125000000036
 20
18.915170544710605
 10
1.6953125000000036
 20
18.45082886634519
 10
1.6953125000000036
 20
18.202725544710603
 10
1.6953125000000036
 20
17.751764909382633
 10
1.6953125000000036
 20
17.520629544710605
 10
1.6953125000000036
 20
17.08663713963895
 10
1.6953125000000036
 20
16.875882544710606
 10
1.6953125000000036
 20
16.462271636867285
 10
1.6953125000000036
 20
16.275101544710605
 10
1.6953125000000036
 20
15.88507359299841
 10
1.6953125000000036
 20
15.724448544710604
 10
1.6953125000000036
 20
15.360966760728214
 10
1.6953125000000036
 20
15.229576544710604
 10
1.6953125000000036
 20
14.895329180262616
 10
1.6953125000000036
 20
14.795562544710606
 10
1.6953125000000036
 20
14.492938975594218
 10
1.6953125000000036
 20
14.426860544710605
 10
1.6953125000000036
 20
14.157924979906776
 10
1.6953125000000036
 20
14.127253544710605
  0
LWPOLYLINE
  5
31
330
17
100
AcDbEntity
  8
SECTION_003
 62
5
100
AcDbPolyline
 90
96
 70
1
 10
15.1875
 20
1.0
 10
16.607224281256016
 20
1.0
 10
17.1875
 20
1.0
 10
17.1875
 20
1.1497412678751235
 10
17.1875
 20
1.2276033328563196
 10
17.1875
 20
1.6622030984030083
 10
17.1875
 20
1.989387104143753
 10
17.1875
 20
2.1457707128436754
 10
17.1875
 20
2.440333750704
 10
17.200875431307008
 20
2.6439098159376258
 10
17.216322079999998
 20
2.9135004684169994
 10
17.27514574784931
 20
3.238634056762292
 10
17.3016807
 20
3.4085781983029655
 10
17.438801018049134
 20
3.906971003752716
 10
17.4402956
 20
3.9135030151769463
 10
17.456866256575772
 20
3.9606713273748158
 10
17.6268398
 20
4.444500232264442
 10
17.66020122572166
 20
4.508459541398159
 10
17.854144599999998
 20
4.9803456641094686
 10
17.906172518538064
 20
5.062793820020702
 10
18.1134748
 20
5.518271503927257
 10
18.166961054480517
 20
5.584965224598651
 10
18.394865
 20
6.055558326635585
 10
18.4254822517203
 20
6.07262200011102
 10
18.6875
 20
6.5795271027431355
 10
18.4254822517203
 20
7.086432205375253
 10
18.394865
 20
7.103495878850687
 10
18.273615738686697
 20
7.353860060375048
 10
18.166961054480517
 20
7.5740889808876215
 10
18.135464498239944
 20
7.61336295734413
 10
18.1134748
 20
7.640782701559017
 10
18.00685236863423
 20
7.875051247854207
 10
17.906172518538064
 20
8.096260385465571
 10
17.87701739901367
 20
8.142462284189818
 10
17.854144599999998
 20
8.178708541376805
 10
17.759233644506406
 20
8.409637435822807
 10
17.66020122572166
 20
8.650594664088114
 10
17.641479589674162
 20
8.686487091094298
 10
17.6268398
 20
8.71455397322183
 10
17.54045668233267
 20
8.960443784437784
 10
17.4402956
 20
9.245551190309326
 10
17.43957951705216
 20
9.24868080211865
 10
17.438801018049134
 20
9.252083201733557
 10
17.36262250105072
 20
9.528970292331167
 10
17.3016807
 20
9.750476007183307
 10
17.290333851850185
 20
9.82314737831662
 10
17.27514574784931
 20
9.92042014872398
 10
17.240034932124072
 20
10.114487392577283
 10
17.216322079999998
 20
10.245553737069272
 10
17.200875431307008
 20
10.515144389548647
 10
17.1875
 20
10.718720454782272
 10
17.1875
 20
10.922667956817016
 10
17.1875
 20
11.013283492642596
 10
17.1875
 20
11.261328203954555
 10
17.1875
 20
11.496851107083264
 10
17.1875
 20
11.632063231421482
 10
17.1875
 20
12.00931293761115
 10
17.1875
 20
12.039654154663967
 10
17.1875
 20
12.051959951787483
 10
17.1875
 20
12.159054205486273
 10
15.767775718743984
 20
12.159054205486273
 10
15.1875
 20
12.159054205486273
 10
15.1875
 20
12.023955161883045
 10
15.1875
 20
12.015473102743137
 10
15.1875
 20
11.499847777238791
 10
15.1875
 20
11.464820102743136
 10
15.1875
 20
10.922650792257734
 10
15.1875
 20
10.864039102743137
 10
15.1875
 20
10.29828464389248
 10
15.1875
 20
10.219292102743136
 10
15.1875
 20
9.63315683621395
 10
15.1875
 20
9.537196102743136
 10
15.1875
 20
8.934093203937678
 10
15.1875
 20
8.824751102743136
 10
15.1875
 20
8.208265923765609
 10
15.1875
 20
8.089266102743137
 10
15.1875
 20
7.463123683226854
 10
15.1875
 20
7.338289502743137
 10
15.1875
 20
6.7063127501907225
 10
15.1875
 20
6.579527102743137
 10
15.1875
 20
5.945598865505209
 10
15.1875
 20
5.820764702743137
 10
15.1875
 20
5.188787860474349
 10
15.1875
 20
5.069788102743137
 10
15.1875
 20
4.443645350206491
 10
15.1875
 20
4.334303102743137
 10
15.1875
 20
3.717818748447349
 10
15.1875
 20
3.6218581027431362
 10
15.1875
 20
3.0187546523335236
 10
15.1875
 20
2.9397621027431367
 10
15.1875
 20
2.353626898847633
 10
15.1875
 20
2.295015102743136
 10
15.1875
 20
1.729261672758935
 10
15.1875
 20
1.6942341027431365
 10
15.1875
 20
1.152063175080996
 10
15.1875
 20
1.143581102743136
  0
ENDSEC
  0
SECTION
  2
OBJECTS
  0
DICTIONARY
  5
A
330
0
100
AcDbDictionary
281
1
  3
ACAD_COLOR
350
B
  3
ACAD_GROUP
350
C
  3
ACAD_LAYOUT
350
D
  3
ACAD_MATERIAL
350
E
  3
ACAD_MLEADERSTYLE
350
F
  3
ACAD_MLINESTYLE
350
10
  3
ACAD_PLOTSETTINGS
350
11
  3
ACAD_PLOTSTYLENAME
350
12
  3
ACAD_SCALELIST
350
14
  3
ACAD_TABLESTYLE
350
15
  3
ACAD_VISUALSTYLE
350
16
  3
EZDXF_META
350
2D
  0
DICTIONARY
  5
B
330
A
100
AcDbDictionary
281
1
  0
DICTIONARY
  5
C
330
A
100
AcDbDictionary
281
1
  0
DICTIONARY
  5
D
330
A
100
AcDbDictionary
281
1
  3
Model
350
1A
  3
Layout1
350
1E
  0
DICTIONARY
  5
E
330
A
100
AcDbDictionary
281
1
  3
ByBlock
350
1F
  3
ByLayer
350
20
  3
Global
350
21
  0
DICTIONARY
  5
F
330
A
100
AcDbDictionary
281
1
  3
Standard
350
2C
  0
DICTIONARY
  5
10
330
A
100
AcDbDictionary
281
1
  3
Standard
350
22
  0
DICTIONARY
  5
11
330
A
100
AcDbDictionary
281
1
  0
ACDBDICTIONARYWDFLT
  5
12
330
A
100
AcDbDictionary
281
1
  3
Normal
350
13
100
AcDbDictionaryWithDefault
340
13
  0
ACDBPLACEHOLDER
  5
13
330
12
  0
DICTIONARY
  5
14
330
A
100
AcDbDictionary
281
1
  0
DICTIONARY
  5
15
330
A
100
AcDbDictionary
281
1
  0
DICTIONARY
  5
16
330
A
100
AcDbDictionary
281
1
  0
LAYOUT
  5
1A
330
D
100
AcDbPlotSettings
  1

  4
A3
  6

 40
7.5
 41
20.0
 42
7.5
 43
20.0
 44
420.0
 45
297.0
 46
0.0
 47
0.0
 48
0.0
 49
0.0
140
0.0
141
0.0
142
1.0
143
1.0
 70
1024
 72
1
 73
0
 74
5
  7

 75
16
 76
0
 77
2
 78
300
147
1.0
148
0.0
149
0.0
100
AcDbLayout
  1
Model
 70
1
 71
0
 10
0.0
 20
0.0
 11
420.0
 21
297.0
 12
0.0
 22
0.0
 32
0.0
 14
1e+20
 24
1e+20
 34
1e+20
 15
-1e+20
 25
-1e+20
 35
-1e+20
146
0.0
 13
0.0
 23
0.0
 33
0.0
 16
1.0
 26
0.0
 36
0.0
 17
0.0
 27
1.0
 37
0.0
 76
1
330
17
  0
LAYOUT
  5
1E
330
D
100
AcDbPlotSettings
  1

  4
A3
  6

 40
7.5
 41
20.0
 42
7.5
 43
20.0
 44
420.0
 45
297.0
 46
0.0
 47
0.0
 48
0.0
 49
0.0
140
0.0
141
0.0
142
1.0
143
1.0
 70
0
 72
1
 73
0
 74
5
  7

 75
16
 76
0
 77
2
 78
300
147
1.0
148
0.0
149
0.0
100
AcDbLayout
  1
Layout1
 70
1
 71
1
 10
0.0
 20
0.0
 11
420.0
 21
297.0
 12
0.0
 22
0.0
 32
0.0
 14
1e+20
 24
1e+20
 34
1e+20
 15
-1e+20
 25
-1e+20
 35
-1e+20
146
0.0
 13
0.0
 23
0.0
 33
0.0
 16
1.0
 26
0.0
 36
0.0
 17
0.0
 27
1.0
 37
0.0
 76
1
330
1B
  0
MATERIAL
  5
1F
102
{ACAD_REACTORS
330
E
102
}
330
E
100
AcDbMaterial
  1
ByBlock
  2

 70
0
 40
1.0
 71
1
 41
1.0
 91
-1023410177
 42
1.0
 72
1
  3

 73
1
 74
1
 75
1
 44
0.5
 73
0
 45
1.0
 46
1.0
 77
1
  4

 78
1
 79
1
170
1
 48
1.0
171
1
  6

172
1
173
1
174
1
140
1.0
141
1.0
175
1
  7

176
1
177
1
178
1
143
1.0
179
1
  8

270
1
271
1
272
1
145
1.0
146
1.0
273
1
  9

274
1
275
1
276
1
 42
1.0
 72
1
  3

 73
1
 74
1
 75
1
 94
63
  0
MATERIAL
  5
20
102
{ACAD_REACTORS
330
E
102
}
330
E
100
AcDbMaterial
  1
ByLayer
  2

 70
0
 40
1.0
 71
1
 41
1.0
 91
-1023410177
 42
1.0
 72
1
  3

 73
1
 74
1
 75
1
 44
0.5
 73
0
 45
1.0
 46
1.0
 77
1
  4

 78
1
 79
1
170
1
 48
1.0
171
1
  6

172
1
173
1
174
1
140
1.0
141
1.0
175
1
  7

176
1
177
1
178
1
143
1.0
179
1
  8

270
1
271
1
272
1
145
1.0
146
1.0
273
1
  9

274
1
275
1
276
1
 42
1.0
 72
1
  3

 73
1
 74
1
 75
1
 94
63
  0
MATERIAL
  5
21
102
{ACAD_REACTORS
330
E
102
}
330
E
100
AcDbMaterial
  1
Global
  2

 70
0
 40
1.0
 71
1
 41
1.0
 91
-1023410177
 42
1.0
 72
1
  3

 73
1
 74
1
 75
1
 44
0.5
 73
0
 45
1.0
 46
1.0
 77
1
  4

 78
1
 79
1
170
1
 48
1.0
171
1
  6

172
1
173
1
174
1
140
1.0
141
1.0
175
1
  7

176
1
177
1
178
1
143
1.0
179
1
  8

270
1
271
1
272
1
145
1.0
146
1.0
273
1
  9

274
1
275
1
276
1
 42
1.0
 72
1
  3

 73
1
 74
1
 75
1
 94
63
  0
MLINESTYLE
  5
22
102
{ACAD_REACTORS
330
10
102
}
330
10
100
AcDbMlineStyle
  2
Standard
 70
0
  3

 62
256
 51
90.0
 52
90.0
 71
2
 49
0.5
 62
256
  6
BYLAYER
 49
-0.5
 62
256
  6
BYLAYER
  0
MLEADERSTYLE
  5
2C
102
{ACAD_REACTORS
330
F
102
}
330
F
100
AcDbMLeaderStyle
179
2
170
2
171
1
172
0
 90
2
 40
0.0
 41
0.0
173
1
 91
-1056964608
 92
-2
290
1
 42
2.0
291
1
 43
8.0
  3
Standard
 44
4.0
300

342
29
174
1
175
1
176
0
178
1
 93
-1056964608
 45
4.0
292
0
297
0
 46
4.0
 94
-1056964608
 47
1.0
 49
1.0
140
1.0
294
1
141
0.0
177
0
142
1.0
295
0
296
0
143
3.75
271
0
272
9
273
9
  0
DICTIONARY
  5
2D
330
A
100
AcDbDictionary
280
1
281
1
  3
CREATED_BY_EZDXF
350
2E
  3
WRITTEN_BY_EZDXF
350
34
  0
DICTIONARYVAR
  5
2E
330
2D
100
DictionaryVariables
280
0
  1
1.4.3 @ 2026-04-09T09:35:29.973866+00:00
  0
DICTIONARYVAR
  5
34
330
2D
100
DictionaryVariables
280
0
  1
1.4.3 @ 2026-04-09T09:35:29.980384+00:00
  0
ENDSEC
  0
EOF
